<?xml version="1.0" standalone="no"?>
<!DOCTYPE svg PUBLIC "-//W3C//DTD SVG 20010904//EN"
 "http://www.w3.org/TR/2001/REC-SVG-20010904/DTD/svg10.dtd">
<svg version="1.0" xmlns="http://www.w3.org/2000/svg"
 width="572.000000pt" height="572.000000pt" viewBox="0 0 572.000000 572.000000"
 preserveAspectRatio="xMidYMid meet">
<metadata>
Created by potrace 1.14, written by Peter Selinger 2001-2017
</metadata>
<g transform="translate(0.000000,572.000000) scale(0.100000,-0.100000)"
fill="#000000" stroke="none">
<path d="M1 3953 c1 -973 3 -1759 6 -1748 45 208 98 337 189 466 51 72 178
199 234 234 25 15 61 41 81 56 20 16 43 29 51 29 8 0 33 9 56 20 23 11 55 23
71 26 27 6 30 3 40 -32 6 -22 11 -48 11 -60 0 -11 4 -24 9 -30 5 -5 11 -27 13
-49 l3 -40 -95 -48 c-100 -50 -225 -144 -267 -199 -84 -112 -149 -267 -160
-378 -2 -30 -8 -59 -12 -65 -16 -21 7 -263 33 -348 39 -127 125 -257 216 -328
40 -31 96 -64 124 -73 28 -10 61 -23 73 -29 29 -13 31 -10 48 52 13 50 105
201 141 232 49 43 158 90 219 96 78 7 123 -7 173 -55 55 -53 76 -116 69 -211
-6 -101 -24 -139 -99 -218 -71 -73 -118 -107 -166 -118 -19 -4 -45 -13 -60
-21 -15 -8 -35 -14 -44 -14 -24 0 -23 -31 2 -63 11 -14 39 -54 62 -88 47 -70
234 -229 268 -229 11 0 20 -4 20 -8 0 -13 97 -32 195 -38 71 -5 109 -1 178 15
80 19 103 31 234 117 79 52 146 94 148 92 96 -110 101 -127 65 -197 -33 -66
-185 -185 -253 -198 -18 -3 -41 -12 -52 -19 -48 -30 -175 -47 -299 -41 -198
10 -316 50 -467 156 -145 103 -286 292 -324 437 -8 31 -19 62 -25 69 -6 7 -43
21 -83 30 -154 38 -332 156 -422 280 -40 56 -105 161 -120 195 -26 56 -66 210
-75 280 -4 36 -8 -375 -9 -912 l-1 -978 2860 0 2860 0 0 2860 0 2860 -2860 0
-2860 0 1 -1767z m3192 1341 c213 -26 505 -90 681 -148 55 -19 133 -44 171
-56 39 -12 82 -30 96 -40 34 -24 96 -50 120 -50 17 0 195 -89 269 -135 19 -12
48 -25 64 -29 76 -19 196 -129 196 -180 0 -12 7 -43 16 -71 8 -27 17 -68 20
-90 3 -22 12 -85 20 -140 9 -55 20 -138 25 -185 5 -47 12 -101 15 -120 3 -19
7 -66 9 -105 3 -38 5 -70 5 -70 1 0 4 -65 7 -145 6 -174 -11 -502 -33 -620 -8
-47 -19 -110 -24 -140 -5 -30 -19 -86 -30 -125 -11 -38 -23 -79 -25 -90 -3
-11 -9 -31 -14 -45 -17 -47 -24 -65 -56 -155 -46 -129 -85 -218 -167 -379 -90
-179 -83 -166 -147 -266 -57 -91 -61 -96 -149 -209 -31 -40 -70 -92 -87 -116
-60 -84 -322 -360 -398 -418 -18 -14 -64 -55 -103 -93 -66 -63 -193 -169 -271
-226 -17 -13 -63 -49 -101 -80 -39 -31 -105 -78 -148 -104 -44 -26 -100 -65
-125 -86 -26 -21 -52 -38 -59 -38 -7 0 -44 -18 -82 -40 -39 -22 -72 -40 -74
-40 -10 0 -234 135 -309 186 -44 30 -85 54 -91 54 -6 0 -14 9 -17 19 -2 10
-18 27 -33 37 -180 116 -690 588 -831 769 -111 142 -220 293 -248 342 -15 26
-36 57 -46 68 -23 26 -138 257 -212 425 -47 108 -87 209 -87 220 0 6 -18 56
-39 109 -24 59 -48 144 -60 212 -12 63 -26 130 -31 149 -6 19 -13 55 -15 80
-3 25 -12 94 -20 153 -17 123 -19 427 -5 617 11 145 39 398 47 420 3 8 7 26 8
40 2 14 15 79 30 145 14 66 27 131 30 145 13 81 45 109 240 207 50 25 121 63
158 85 37 21 90 46 117 54 27 8 71 25 97 38 27 13 77 34 113 46 36 12 92 32
125 45 89 35 250 79 347 94 31 6 65 14 75 20 10 5 50 14 88 20 39 5 79 12 90
14 115 25 336 36 608 31 114 -3 226 -7 250 -10z m1751 -2286 c-3 -24 -13 -74
-22 -113 -24 -100 -29 -38 -6 72 18 86 39 115 28 41z m189 -34 c129 -78 148
-92 228 -169 90 -86 191 -232 234 -336 27 -65 59 -183 73 -268 10 -66 5 -286
-8 -341 -6 -26 -13 -54 -14 -61 -16 -85 -33 -144 -58 -194 -33 -66 -112 -187
-134 -206 -8 -6 -14 -15 -14 -20 0 -12 -86 -90 -126 -114 -18 -11 -52 -34 -76
-50 -68 -48 -117 -68 -200 -79 l-77 -10 -17 -66 c-9 -36 -24 -76 -33 -90 -9
-14 -25 -45 -36 -70 -39 -91 -174 -238 -290 -315 -93 -62 -228 -116 -335 -134
-41 -7 -80 -15 -86 -16 -11 -3 -176 10 -243 20 -32 4 -84 22 -185 64 -22 8
-58 30 -80 48 -111 88 -166 138 -172 156 -8 25 107 144 150 155 26 7 35 2 90
-54 130 -129 332 -181 542 -138 91 18 183 63 222 108 15 18 44 42 64 54 40 25
133 142 167 209 l21 43 -33 0 c-51 0 -195 75 -242 127 -22 24 -54 60 -71 79
-27 29 -42 66 -49 119 -1 6 -5 26 -9 47 -10 46 16 140 51 186 13 18 46 43 73
57 102 51 215 26 344 -77 41 -33 120 -166 138 -232 14 -53 28 -64 61 -48 12 6
47 21 77 34 30 12 74 37 97 54 23 18 45 34 50 35 15 7 90 104 108 139 9 19 24
42 31 51 64 72 104 392 69 542 -43 183 -106 305 -212 409 -82 82 -119 108
-216 152 -41 18 -78 39 -82 46 -4 6 0 30 8 53 8 23 21 67 27 97 7 30 14 58 16
62 7 11 94 -21 157 -58z m-4300 -545 c78 -21 167 -147 167 -235 0 -58 -19
-155 -38 -186 -8 -14 -27 -32 -41 -38 -14 -7 -44 -21 -65 -32 -149 -77 -326
33 -326 203 0 78 19 141 58 188 47 58 82 91 107 102 29 11 94 11 138 -2z
m4158 -5 c36 -18 108 -100 130 -149 27 -58 26 -192 -1 -245 -33 -64 -130 -119
-211 -120 -93 0 -211 85 -222 161 -2 10 -6 22 -10 25 -13 13 -6 99 11 149 39
109 63 140 142 182 31 17 126 15 161 -3z m-3415 -1129 c87 -36 169 -144 180
-237 7 -64 -13 -121 -65 -180 -88 -101 -278 -78 -358 43 -23 35 -28 54 -31
129 -4 85 -3 89 27 134 17 25 57 63 88 86 62 44 99 50 159 25z m2616 5 c41
-12 132 -89 152 -129 39 -77 25 -201 -30 -268 -44 -54 -70 -67 -160 -83 -69
-12 -73 -12 -127 14 -52 24 -58 31 -92 101 -34 70 -37 80 -30 132 7 56 39 119
80 157 62 59 76 69 107 76 47 11 58 11 100 0z m-632 -464 c0 -3 -4 -8 -10 -11
-5 -3 -10 -1 -10 4 0 6 5 11 10 11 6 0 10 -2 10 -4z"/>
<path d="M2490 5148 c-52 -4 -162 -22 -245 -39 -82 -17 -170 -35 -195 -40 -25
-5 -63 -15 -85 -23 -22 -8 -62 -19 -90 -26 -27 -6 -59 -15 -70 -20 -11 -4 -47
-17 -80 -30 -33 -12 -78 -30 -100 -40 -22 -9 -52 -20 -67 -24 -15 -3 -65 -24
-112 -46 -47 -22 -95 -45 -108 -50 -13 -6 -36 -19 -53 -30 -16 -11 -41 -24
-54 -30 -75 -33 -191 -106 -187 -117 3 -7 2 -13 -2 -13 -4 0 -13 -28 -20 -62
-6 -35 -21 -101 -32 -148 -64 -265 -86 -393 -101 -585 -11 -148 -7 -379 11
-515 7 -58 22 -129 76 -365 22 -93 59 -212 99 -315 18 -47 35 -98 39 -114 4
-16 22 -64 41 -105 18 -42 36 -83 39 -91 11 -28 171 -326 201 -374 166 -266
414 -548 680 -771 65 -55 142 -121 169 -146 28 -26 70 -58 94 -73 48 -30 122
-99 122 -114 0 -5 11 -10 25 -11 47 -3 54 -4 50 -11 -8 -12 99 -84 191 -130
76 -37 99 -37 177 0 60 29 88 46 173 110 23 16 56 37 75 46 19 9 48 30 65 46
17 16 56 46 86 66 31 20 71 49 89 65 19 15 77 61 129 103 148 117 420 375 479
454 14 20 51 67 82 105 31 39 80 106 109 150 30 44 61 89 71 100 10 11 30 44
46 74 15 29 33 60 38 70 50 81 114 203 125 236 7 22 16 45 21 50 11 14 95 225
118 295 71 218 111 384 145 605 21 134 32 502 18 585 -6 36 -16 112 -22 170
-7 58 -20 150 -30 205 -10 55 -24 134 -30 175 -30 192 -39 224 -69 250 -17 14
-69 46 -118 71 -48 25 -110 57 -138 71 -66 35 -301 138 -315 138 -6 0 -21 7
-33 14 -12 8 -76 31 -143 49 -67 19 -134 42 -150 50 -28 14 -75 25 -139 33
-16 2 -43 8 -60 14 -16 5 -70 14 -120 21 -49 6 -94 14 -100 18 -5 4 -28 8 -50
9 -22 2 -103 7 -180 12 -166 12 -452 11 -585 -2z m555 -68 c61 -6 123 -12 139
-14 16 -3 64 -8 105 -11 149 -13 421 -78 575 -136 27 -11 55 -19 62 -19 41 0
537 -230 602 -278 43 -33 53 -53 68 -137 28 -163 44 -252 49 -275 7 -29 31
-178 44 -270 21 -143 23 -361 7 -549 -9 -101 -19 -187 -21 -191 -2 -4 -9 -40
-16 -81 -6 -41 -19 -101 -29 -134 -10 -33 -31 -105 -46 -160 -51 -188 -158
-455 -261 -650 -30 -56 -187 -300 -233 -360 -25 -33 -62 -85 -82 -115 -39 -58
-330 -359 -385 -398 -17 -12 -61 -50 -97 -83 -36 -34 -84 -74 -108 -90 -37
-24 -126 -92 -191 -145 -10 -8 -42 -29 -70 -47 -29 -17 -69 -45 -89 -61 -20
-17 -88 -58 -151 -90 l-113 -59 -57 36 c-32 21 -60 37 -64 37 -6 0 -118 74
-168 112 -16 13 -57 43 -90 68 -86 64 -239 190 -315 260 -36 33 -78 70 -95 82
-56 43 -184 173 -249 252 -36 43 -74 85 -84 92 -11 7 -35 37 -53 66 -19 29
-37 54 -41 56 -4 2 -17 20 -30 40 -12 20 -42 62 -65 94 -24 31 -43 60 -43 65
0 4 -23 46 -51 93 -63 105 -149 276 -149 299 0 9 -9 27 -20 41 -11 14 -20 34
-20 44 0 10 -11 42 -25 70 -29 59 -111 309 -120 364 -4 20 -17 73 -30 117 -58
201 -72 316 -72 610 -1 193 18 482 32 505 3 5 12 46 20 92 8 45 18 84 22 87 5
3 9 24 10 46 2 44 38 158 52 163 4 1 6 14 3 28 -6 32 46 80 138 128 228 118
372 186 394 186 6 0 24 7 39 15 16 8 61 24 100 36 40 11 104 32 142 46 60 21
167 47 240 57 11 2 49 10 85 19 88 21 137 28 330 47 114 11 352 11 475 0z"/>
<path d="M2460 4924 c-85 -13 -180 -30 -210 -38 -30 -8 -71 -18 -90 -21 -82
-13 -209 -50 -267 -76 -34 -16 -68 -29 -74 -29 -7 0 -31 -8 -53 -19 -23 -10
-72 -31 -111 -46 -65 -26 -307 -147 -382 -191 -18 -10 -33 -27 -33 -36 0 -9
-4 -19 -9 -23 -5 -3 -20 -31 -32 -63 -17 -43 -24 -90 -30 -187 -4 -71 -12
-157 -17 -190 -27 -155 -32 -211 -32 -356 0 -86 7 -221 16 -300 8 -79 17 -156
18 -170 2 -14 5 -30 8 -35 3 -5 11 -43 17 -84 6 -41 21 -104 32 -140 50 -161
58 -189 74 -245 23 -77 23 -77 90 -225 87 -192 166 -350 174 -350 7 0 71 -95
71 -106 0 -3 23 -32 50 -65 28 -33 50 -63 50 -67 0 -4 15 -23 33 -42 18 -19
55 -62 81 -95 26 -33 67 -79 89 -101 23 -23 47 -48 53 -55 24 -31 243 -232
272 -249 16 -10 34 -25 39 -33 10 -18 70 -66 188 -151 50 -35 99 -73 111 -84
11 -11 35 -27 51 -36 17 -8 37 -22 45 -29 8 -8 27 -22 43 -31 17 -9 42 -26 57
-37 l26 -22 69 44 c37 25 84 53 103 63 19 11 60 39 91 63 30 24 59 43 65 43 9
1 119 86 265 204 85 70 382 366 487 487 40 46 95 118 122 159 27 41 66 97 87
123 20 26 51 74 67 106 17 32 43 81 58 109 16 28 28 56 28 62 0 6 11 26 24 43
13 18 26 41 29 52 3 11 20 58 37 105 68 183 111 317 125 393 8 43 17 82 19 85
2 4 13 77 25 162 12 85 26 189 32 230 13 87 5 310 -16 445 -8 50 -17 131 -20
180 -4 50 -17 135 -30 190 -13 55 -30 134 -39 176 -17 76 -17 77 -64 101 -26
14 -60 32 -77 41 -16 9 -55 28 -85 42 -30 14 -66 32 -80 39 -14 8 -59 29 -100
46 -41 18 -89 38 -107 46 -17 8 -36 14 -42 14 -10 0 -77 28 -134 56 -15 7 -69
23 -120 34 -51 11 -119 27 -152 35 -33 8 -82 19 -110 24 -27 6 -63 14 -80 17
-47 11 -53 11 -180 23 -202 18 -467 12 -645 -15z m454 -304 c-1 -166 -5 -233
-18 -295 -10 -44 -20 -91 -23 -105 -3 -14 -9 -106 -12 -205 -6 -188 -5 -196
42 -296 8 -18 10 -55 6 -120 -3 -52 -4 -129 -2 -171 l3 -77 -192 -191 c-105
-104 -195 -190 -199 -190 -4 0 -15 -10 -23 -21 l-15 -22 -7 28 c-4 15 -19 52
-34 83 -14 32 -33 73 -40 92 -14 34 -34 69 -97 166 -49 75 -63 94 -72 94 -8 0
-71 -87 -71 -99 0 -4 -8 -15 -18 -24 -10 -9 -29 -36 -41 -59 -13 -24 -33 -61
-45 -83 l-22 -40 -114 -3 -113 -3 6 61 c3 33 12 71 20 83 8 12 17 36 21 53 4
16 23 52 42 80 20 27 56 81 81 119 25 39 53 77 62 85 9 8 42 44 72 79 29 36
74 83 98 105 24 23 63 58 85 79 23 21 68 51 100 68 33 16 67 36 77 45 10 9 19
11 23 5 3 -5 7 -58 8 -118 2 -102 1 -110 -25 -153 -15 -25 -67 -88 -116 -140
-49 -52 -88 -97 -86 -99 3 -2 16 4 30 13 l26 17 80 -82 c43 -46 79 -87 79 -91
0 -21 19 -5 23 20 3 19 4 16 6 -14 1 -48 25 -78 34 -44 5 21 26 23 39 5 5 -7
14 -6 25 1 16 10 18 28 17 175 0 182 -6 279 -15 279 -10 0 -21 48 -25 100 -1
25 -5 79 -8 120 -5 63 -3 77 13 95 12 13 22 52 31 115 7 52 17 118 21 145 5
28 11 64 14 80 2 17 9 59 14 95 26 167 33 227 31 293 -1 40 -2 76 -1 80 1 4
47 6 104 5 l102 -3 -1 -215z m-344 190 c12 -7 8 -12 -17 -21 l-33 -11 0 -146
c0 -144 0 -145 -20 -127 -11 10 -20 27 -20 38 0 17 -5 19 -42 13 -99 -16 -383
-129 -453 -181 -16 -12 -53 -33 -80 -47 l-51 -25 -35 36 c-51 53 -109 96 -154
116 l-40 17 32 26 c18 15 58 38 90 51 32 14 99 44 148 67 89 42 331 124 365
124 10 0 34 7 55 16 20 8 51 17 69 20 45 7 124 29 132 37 10 10 36 9 54 -3z
m785 -50 c201 -50 360 -104 473 -159 56 -28 105 -51 108 -51 20 0 94 -43 94
-55 0 -8 -37 -43 -82 -79 -46 -36 -94 -77 -108 -90 l-25 -25 -58 40 c-64 44
-284 159 -304 159 -7 0 -39 9 -70 19 -32 11 -96 27 -143 35 -47 9 -102 21
-122 26 l-38 11 6 92 c8 145 3 136 76 122 35 -7 122 -27 193 -45z m-210 -286
c28 -8 57 -17 65 -20 8 -2 53 -13 100 -23 145 -33 303 -102 391 -172 l40 -32
-67 -67 c-37 -37 -71 -75 -76 -83 -6 -12 -14 -14 -26 -8 -9 5 -30 14 -47 21
-16 6 -43 19 -60 27 -16 9 -43 22 -60 30 -16 8 -37 18 -45 22 -9 5 -31 12 -50
16 -19 4 -72 18 -118 32 -46 13 -95 27 -110 29 -15 3 -39 10 -54 17 -25 11
-26 12 -13 47 8 19 21 62 30 95 23 85 23 85 37 85 7 0 36 -7 63 -16z m1202
-46 c16 -18 22 -42 27 -109 8 -96 6 -98 -70 -136 -22 -12 -77 -48 -122 -82
-44 -34 -85 -61 -89 -61 -14 0 -219 -202 -258 -255 -21 -27 -54 -68 -74 -91
-20 -22 -44 -54 -54 -70 -35 -60 -117 -164 -128 -164 -15 0 -139 128 -139 144
0 10 9 16 23 17 20 1 20 2 2 6 -11 3 -24 8 -28 12 -10 10 103 179 191 286 36
44 106 118 155 165 50 47 97 93 106 103 8 9 20 17 26 17 6 0 38 21 71 48 92
74 291 189 330 191 6 1 20 -9 31 -21z m-2883 -22 c18 -13 59 -39 92 -56 32
-17 64 -37 69 -44 6 -6 37 -29 70 -51 82 -53 135 -96 135 -109 0 -6 -36 -47
-80 -91 l-80 -80 -25 28 c-14 15 -31 27 -37 27 -13 0 -60 30 -148 95 -30 22
-79 54 -110 70 -44 24 -56 36 -58 58 -3 22 -7 27 -22 22 -26 -8 -33 9 -25 61
5 37 12 48 44 68 20 13 46 26 57 29 35 10 85 -2 118 -27z m1120 -23 c-4 -16
-13 -40 -20 -55 -8 -15 -14 -37 -14 -49 0 -13 -5 -48 -12 -80 -10 -52 -14 -57
-47 -69 -80 -28 -241 -113 -282 -148 -24 -21 -75 -62 -112 -91 -65 -51 -124
-116 -229 -254 -74 -96 -177 -311 -209 -436 l-27 -106 -49 -7 c-26 -3 -87 -7
-134 -7 l-87 -1 -5 28 c-3 15 -1 32 3 37 5 6 11 22 14 35 5 27 36 123 69 210
39 107 127 277 199 385 77 115 182 245 215 266 17 11 39 31 47 44 9 14 23 25
30 25 8 0 16 6 19 14 5 14 107 86 121 86 4 0 30 15 59 33 72 44 172 93 232
112 142 45 172 54 198 54 25 1 27 -1 21 -26z m521 -243 c39 -7 102 -21 140
-32 39 -11 86 -21 105 -23 35 -2 212 -43 219 -51 2 -2 -22 -43 -54 -91 -32
-49 -72 -109 -89 -135 -30 -46 -31 -47 -51 -29 -60 55 -291 131 -399 131 -28
0 -57 4 -65 9 -22 14 -8 94 33 176 35 71 37 73 64 65 15 -5 59 -14 97 -20z
m1249 -142 c14 -23 33 -98 24 -98 -3 0 -31 9 -63 19 -52 17 -60 18 -81 4 -13
-8 -31 -13 -41 -11 -14 3 -10 9 20 27 20 13 37 27 37 32 0 11 60 49 77 49 7 0
19 -10 27 -22z m-2996 -13 c26 -14 56 -31 66 -38 11 -6 44 -27 73 -45 29 -18
53 -35 53 -38 0 -13 -61 -122 -80 -144 -13 -14 -29 -41 -37 -60 -9 -19 -27
-49 -42 -66 -15 -17 -42 -73 -60 -125 -18 -52 -40 -109 -49 -128 l-16 -33 -8
28 c-20 70 -10 495 13 589 6 22 11 49 13 60 2 11 4 21 5 23 4 7 27 -1 69 -23z
m3005 -107 c28 -27 44 -75 46 -140 l2 -48 -38 0 c-28 0 -34 -3 -23 -10 8 -5
25 -10 38 -10 21 0 22 -4 22 -75 0 -94 -19 -144 -73 -188 -42 -33 -147 -87
-170 -87 -7 0 -23 -7 -35 -16 -12 -8 -22 -10 -22 -5 0 6 4 11 10 11 6 0 9 45
8 113 -1 85 4 131 20 192 11 44 23 123 27 175 3 52 9 98 13 102 9 8 88 16 123
12 15 -2 38 -13 52 -26z m-273 -40 c0 -6 8 -20 17 -30 15 -17 15 -27 1 -129
-17 -124 -35 -156 -119 -215 -40 -28 -65 -74 -40 -74 23 0 91 -56 97 -80 8
-31 33 -60 51 -60 7 0 13 -6 13 -13 0 -20 37 -51 66 -54 44 -6 102 17 155 62
59 50 79 56 79 23 0 -76 -40 -137 -90 -138 -23 -1 -23 -2 -5 -9 18 -7 17 -10
-13 -28 -23 -14 -60 -23 -115 -27 -45 -4 -111 -9 -147 -12 l-66 -6 -109 123
c-203 226 -195 214 -172 266 15 35 78 123 88 123 3 0 28 29 53 64 26 35 67 77
90 94 24 17 66 54 95 82 51 50 71 61 71 38z m-955 -123 c12 -7 51 -43 87 -79
36 -36 71 -66 76 -66 6 0 23 -20 39 -45 15 -25 36 -48 46 -51 9 -3 17 -10 17
-16 0 -15 43 -58 58 -58 6 0 12 -6 12 -12 0 -7 18 -31 39 -53 74 -76 91 -96
91 -105 0 -6 5 -10 12 -10 10 0 173 -162 165 -164 -1 -1 -77 0 -168 2 l-166 3
-56 57 c-316 324 -365 381 -351 404 4 6 6 51 5 100 -2 57 2 95 10 104 12 15
50 10 84 -11z m-611 -302 c20 -65 20 -75 0 -71 -30 6 -70 149 -47 171 8 8 25
-28 47 -100z m1146 -55 c0 -6 -6 -5 -15 2 -8 7 -15 14 -15 16 0 2 7 1 15 -2 8
-4 15 -11 15 -16z m-535 -107 c47 -46 85 -87 85 -91 0 -4 -28 -31 -62 -61 -35
-29 -69 -61 -76 -71 -16 -22 -30 -35 -87 -83 -27 -22 -78 -68 -115 -101 -37
-34 -81 -69 -99 -78 -17 -9 -31 -20 -31 -24 0 -4 -12 -21 -28 -37 -65 -73
-132 -154 -132 -162 0 -4 -18 -28 -39 -53 l-39 -45 -65 69 c-63 68 -64 70 -55
105 6 20 20 47 33 61 12 14 28 36 35 50 27 51 142 180 342 381 114 115 210
209 214 209 4 0 13 -8 20 -17 7 -10 16 -15 20 -11 4 5 -1 18 -12 29 -46 52 13
7 91 -70z m1235 -141 c0 -5 -5 -10 -11 -10 -5 0 -7 5 -4 10 3 6 8 10 11 10 2
0 4 -4 4 -10z m-693 -76 c-3 -3 -12 -4 -19 -1 -8 3 -5 6 6 6 11 1 17 -2 13 -5z
m683 -13 c0 -6 -5 -13 -10 -16 -15 -9 -43 3 -35 15 8 13 45 13 45 1z m-1933
-79 c20 -61 21 -68 7 -98 l-15 -32 -102 -6 c-151 -9 -905 -17 -934 -10 -18 5
-33 25 -60 82 -34 74 -46 109 -39 121 2 3 255 7 563 7 l558 2 22 -66z m1904
48 c25 -14 24 -20 -9 -125 l-29 -88 -44 -14 c-24 -7 -80 -17 -124 -22 -44 -6
-125 -15 -180 -22 -134 -16 -462 -16 -545 0 -36 7 -87 16 -115 20 -85 13 -134
39 -166 90 -29 45 -40 86 -18 64 14 -14 35 3 41 33 2 12 13 20 31 22 15 2 27
6 27 10 0 4 13 13 29 20 24 11 42 11 88 1 98 -20 930 -5 952 17 8 8 42 4 62
-6z m-1290 -192 c17 -18 42 -48 57 -66 21 -28 45 -48 125 -103 4 -3 3 -26 -3
-51 -13 -50 -98 -148 -128 -148 -10 0 -53 35 -97 78 -134 130 -152 156 -134
196 12 26 123 126 141 126 5 0 23 -15 39 -32z m-1333 -138 c7 -25 44 -106 82
-180 l68 -136 -30 -37 c-24 -29 -35 -36 -53 -31 -13 3 -32 1 -43 -5 -25 -13
-46 -72 -40 -112 8 -56 -11 -40 -52 43 -23 46 -45 88 -50 93 -31 38 -165 391
-151 399 3 2 49 4 101 5 52 1 97 4 99 7 3 3 16 4 30 2 19 -2 27 -13 39 -48z
m469 23 c7 -16 33 -49 58 -75 25 -27 45 -54 45 -62 0 -16 6 -22 81 -86 29 -25
60 -52 69 -60 8 -8 30 -26 48 -39 25 -17 30 -26 22 -36 -8 -10 -3 -21 20 -44
28 -27 30 -35 26 -78 -3 -26 -8 -74 -12 -106 l-6 -58 -31 7 c-18 4 -40 8 -49
8 -10 0 -18 4 -18 8 0 5 -33 29 -72 55 -138 89 -297 223 -316 267 -8 17 -24
42 -37 56 -25 28 -62 91 -112 190 -23 47 -29 66 -20 72 7 4 75 8 152 8 l140 0
12 -27z m2005 -70 c4 -49 -2 -73 -33 -153 -44 -110 -146 -311 -182 -355 l-24
-30 -34 38 c-43 49 -99 154 -99 188 0 29 45 117 147 290 32 53 34 54 95 65 35
6 77 12 95 13 31 1 31 1 35 -56z m-1824 11 c-4 -3 -12 5 -18 18 -12 22 -12 22
6 6 10 -10 15 -20 12 -24z m1422 -4 c0 -3 -14 -25 -30 -50 -16 -25 -30 -49
-30 -54 0 -27 -169 -207 -295 -315 -106 -91 -325 -221 -372 -221 l-31 0 -4 93
c-3 85 -2 94 19 114 13 12 23 29 23 37 0 13 50 50 93 68 9 4 17 11 17 15 0 4
16 19 35 32 19 13 35 29 35 36 0 12 54 65 66 65 8 0 61 54 127 130 l47 55 150
0 c83 0 150 -2 150 -5z m-932 -105 c42 -49 67 -87 61 -91 -7 -4 -10 -78 -9
-213 1 -113 0 -213 -1 -221 -1 -15 9 -151 12 -160 12 -29 19 -420 12 -584 -7
-154 -10 -170 -28 -180 -11 -6 -24 -17 -28 -23 -11 -18 -27 -16 -27 3 0 14 -2
14 -16 -1 -10 -9 -20 -13 -23 -8 -3 4 -18 14 -33 22 -16 8 -26 17 -23 19 3 3
-2 10 -10 16 -16 12 -29 97 -46 301 -6 66 -13 148 -16 183 l-5 63 -82 38 c-44
21 -94 41 -109 45 -15 4 -61 22 -101 41 -40 18 -83 36 -97 40 -14 3 -56 31
-95 62 -38 30 -82 62 -99 70 -16 9 -31 17 -33 18 -4 3 77 136 96 158 26 30 58
22 133 -35 20 -16 41 -28 46 -28 4 0 24 -13 44 -29 19 -16 76 -48 125 -70 49
-23 107 -51 128 -62 l39 -21 -6 113 c-3 63 -1 179 6 259 13 152 12 194 -4 185
-5 -4 -9 1 -9 11 0 17 107 164 120 164 3 0 38 -38 78 -85z m-860 -231 c19 -15
54 -46 78 -70 24 -24 51 -44 61 -45 12 0 7 -6 -13 -14 -30 -13 -59 -53 -121
-162 -12 -23 -23 -50 -23 -60 0 -15 -2 -16 -10 -3 -8 12 -10 12 -10 1 0 -8 -3
-11 -6 -8 -10 10 -44 -12 -44 -29 0 -11 -6 -13 -20 -9 -14 4 -22 1 -26 -10 -6
-14 -10 -12 -30 12 -13 15 -23 33 -24 39 0 7 -6 14 -13 17 -19 7 -63 97 -51
105 15 10 25 42 14 42 -20 0 -9 30 28 74 20 24 45 56 55 71 20 28 84 73 106
74 8 1 30 -11 49 -25z m1729 1 c21 -15 145 -258 157 -308 5 -23 -1 -38 -31
-79 -47 -63 -102 -116 -127 -124 -24 -8 -63 33 -71 74 -3 15 -13 41 -22 57
-58 107 -93 188 -93 214 0 11 10 31 23 45 73 84 123 135 132 135 6 1 20 -6 32
-14z m-214 -352 c14 -21 35 -60 45 -88 11 -27 32 -72 47 -98 l28 -49 -74 -74
c-40 -41 -78 -74 -84 -74 -5 1 -26 23 -45 50 -36 51 -50 61 -50 36 0 -12 -6
-13 -32 -4 -18 6 -37 14 -43 18 -5 4 -19 6 -30 4 -42 -8 -201 -19 -227 -16
-25 3 -27 6 -33 87 -4 46 -4 88 -1 94 4 5 41 17 84 26 102 22 220 62 285 96
74 39 99 37 130 -8z m-1388 -135 c183 -126 234 -150 354 -172 53 -10 61 -22
61 -90 0 -33 5 -101 10 -149 11 -110 7 -124 -27 -97 -14 11 -32 20 -39 20 -7
0 -22 10 -34 22 -16 17 -20 18 -20 6 0 -18 60 -74 96 -90 13 -6 21 -15 18 -20
-3 -5 -27 10 -54 32 -26 22 -53 40 -59 40 -13 0 -30 31 -24 46 2 6 -20 31 -49
55 -29 24 -59 50 -66 56 -7 7 -19 13 -26 13 -13 0 -60 38 -140 113 -22 20 -45
37 -51 37 -23 0 -93 62 -110 96 -16 35 -16 37 7 82 21 42 39 71 45 72 1 0 50
-33 108 -72z m-217 25 c4 -25 -16 -31 -36 -11 -20 20 -14 40 11 36 14 -2 23
-11 25 -25z m1453 -235 c5 -7 9 -27 9 -45 0 -17 4 -34 9 -37 16 -10 2 -61 -21
-79 -13 -9 -48 -37 -78 -62 -30 -24 -75 -60 -98 -80 -81 -65 -98 -45 -107 131
l-7 121 61 6 c45 4 70 12 103 36 35 24 51 30 82 26 21 -2 43 -9 47 -17z"/>
<path d="M2760 4810 c0 -5 5 -10 10 -10 6 0 10 5 10 10 0 6 -4 10 -10 10 -5 0
-10 -4 -10 -10z"/>
<path d="M2830 3800 c0 -5 7 -7 15 -4 8 4 15 8 15 10 0 2 -7 4 -15 4 -8 0 -15
-4 -15 -10z"/>
<path d="M1118 4548 c-3 -7 -2 -21 1 -31 6 -18 8 -18 21 -2 11 14 11 18 -2 31
-12 13 -16 13 -20 2z"/>
<path d="M3685 1550 c-10 -11 -16 -22 -13 -25 3 -3 13 4 23 15 10 11 16 22 13
25 -3 3 -13 -4 -23 -15z"/>
<path d="M3640 1495 c-7 -9 -8 -15 -2 -15 5 0 12 7 16 15 3 8 4 15 2 15 -2 0
-9 -7 -16 -15z"/>
<path d="M4592 1500 c-6 -11 -12 -28 -12 -39 0 -21 72 -91 94 -91 7 0 19 -7
26 -15 18 -22 28 -18 35 15 5 24 -1 39 -35 85 -22 30 -47 55 -54 55 -8 0 -20
2 -28 5 -7 3 -19 -4 -26 -15z"/>
<path d="M706 2228 c-20 -28 -20 -52 0 -72 46 -46 97 9 57 62 -26 35 -38 37
-57 10z"/>
<path d="M4892 2229 c-19 -7 -23 -15 -20 -46 3 -33 7 -38 31 -41 36 -4 57 13
57 47 0 45 -23 59 -68 40z"/>
<path d="M1528 1099 c-25 -14 -24 -76 1 -84 44 -14 66 28 41 76 -12 22 -18 23
-42 8z"/>
<path d="M4116 1144 c-9 -24 -7 -107 3 -123 8 -12 13 -12 35 3 21 13 26 24 26
60 0 24 -6 48 -12 53 -25 19 -46 22 -52 7z m47 -50 c-8 -20 -33 -17 -33 4 0
10 3 22 7 25 10 11 32 -13 26 -29z m-5 -35 c-2 -6 -8 -10 -13 -10 -5 0 -11 4
-13 10 -2 6 4 11 13 11 9 0 15 -5 13 -11z"/>
<path d="M1074 1519 c-3 -6 -21 -17 -40 -25 -37 -15 -74 -60 -98 -116 -12 -32
-13 -38 -1 -38 32 0 73 24 123 73 42 41 52 58 52 84 0 33 -21 46 -36 22z"/>
</g>
</svg>
